<?xml version="1.0" encoding="utf-8"?>
<!-- Generator: Adobe Illustrator 25.2.3, SVG Export Plug-In . SVG Version: 6.00 Build 0)  -->
<svg version="1.1" xmlns="http://www.w3.org/2000/svg" xmlns:xlink="http://www.w3.org/1999/xlink" x="0px" y="0px"
	 viewBox="0 0 500 500" style="enable-background:new 0 0 500 500;" xml:space="preserve">
<style type="text/css">
	.st0{fill:#407BFF;}
	.st1{opacity:0.9;fill:#FFFFFF;}
	.st2{fill:#F5F5F5;}
	.st3{opacity:0.6;fill:#FFFFFF;enable-background:new    ;}
	.st4{opacity:0.1;fill:#FFFFFF;enable-background:new    ;}
	.st5{fill:#FFFFFF;}
	.st6{opacity:0.4;}
	.st7{fill:#263238;}
	.st8{opacity:0.2;}
	.st9{opacity:0.5;}
	.st10{opacity:0.7;fill:#FFFFFF;}
	.st11{enable-background:new    ;}
	.st12{opacity:0.3;enable-background:new    ;}
	.st13{opacity:0.2;fill:#FFFFFF;enable-background:new    ;}
	.st14{fill:#B65B52;}
	.st15{opacity:0.2;enable-background:new    ;}
	.st16{fill:#B55B52;}
	.st17{opacity:0.4;fill:#FFFFFF;enable-background:new    ;}
	.st18{opacity:0.2;fill:#FFFFFF;}
	.st19{fill:#A02724;}
	.st20{opacity:0.5;fill:#FFFFFF;enable-background:new    ;}
	.st21{opacity:0.1;enable-background:new    ;}
	.st22{opacity:0.4;enable-background:new    ;}
</style>
<g id="Background_Simple">
	<g>
		<path class="st0" d="M249.55,102.45c-72.15,32.46-6.65,90.32-48.31,121.83c-41.66,31.51-154.93-4.92-111.75,76.91
			c50.72,96.11,272.83,82.77,320.72-35.12C458.09,148.18,321.7,69.99,249.55,102.45z"/>
		<path class="st1" d="M249.55,102.45c-72.15,32.46-6.65,90.32-48.31,121.83c-41.66,31.51-154.93-4.92-111.75,76.91
			c50.72,96.11,272.83,82.77,320.72-35.12C458.09,148.18,321.7,69.99,249.55,102.45z"/>
	</g>
</g>
<g id="Shadow_1_">
	<ellipse id="_x3C_Path_x3E__359_" class="st2" cx="250" cy="416.24" rx="193.89" ry="11.32"/>
</g>
<g id="Interface">
	<g>
		<rect x="233.89" y="148.62" class="st0" width="199.65" height="135.93"/>
		<rect x="233.89" y="148.62" class="st3" width="199.65" height="135.93"/>
		<path class="st4" d="M362.44,148.62c0,0-57.45,53.78-128.55,55.06v-55.06H362.44z"/>
		<path class="st4" d="M433.53,219.58c0,0-39.45-4.11-78.48,18.56s-78.02,44.03-121.17,34.01v12.4h199.65V219.58z"/>
		<rect x="285.97" y="179.35" class="st5" width="95.47" height="16.35"/>
		<rect x="285.97" y="202.54" class="st5" width="95.47" height="16.35"/>
		<g class="st6">
			<path class="st7" d="M294.52,189.12v0.43h-3.32v-4.69h3.22v0.43h-2.72v1.67h2.42v0.42h-2.42v1.74H294.52z"/>
			<path class="st7" d="M295.18,187.52h1.75v0.42h-1.75V187.52z"/>
			<path class="st7" d="M303.81,187.5v2.04h-0.48v-2c0-0.74-0.38-1.13-1.01-1.13c-0.72,0-1.18,0.47-1.18,1.27v1.85h-0.48v-2
				c0-0.74-0.38-1.13-1.02-1.13c-0.72,0-1.18,0.47-1.18,1.27v1.85H298v-3.52h0.46v0.64c0.25-0.42,0.7-0.67,1.29-0.67
				c0.58,0,1.04,0.25,1.25,0.74c0.25-0.46,0.76-0.74,1.39-0.74C303.25,186,303.81,186.49,303.81,187.5z"/>
			<path class="st7" d="M307.76,187.36v2.18h-0.46V189c-0.21,0.36-0.63,0.58-1.21,0.58c-0.8,0-1.29-0.42-1.29-1.02
				c0-0.54,0.35-1,1.36-1h1.12v-0.21c0-0.6-0.34-0.93-1-0.93c-0.46,0-0.88,0.16-1.17,0.42l-0.21-0.35c0.36-0.3,0.88-0.48,1.43-0.48
				C307.24,186,307.76,186.45,307.76,187.36z M307.28,188.49v-0.58h-1.11c-0.68,0-0.9,0.27-0.9,0.63c0,0.41,0.33,0.66,0.89,0.66
				C306.7,189.21,307.1,188.95,307.28,188.49z"/>
			<path class="st7" d="M308.94,184.91c0-0.18,0.15-0.33,0.35-0.33c0.19,0,0.35,0.15,0.35,0.33c0,0.19-0.15,0.35-0.35,0.35
				C309.09,185.25,308.94,185.1,308.94,184.91z M309.05,186.02h0.48v3.52h-0.48V186.02z"/>
			<path class="st7" d="M310.85,184.58h0.48v4.97h-0.48V184.58z"/>
		</g>
		<g class="st6">
			<path class="st7" d="M294.87,209.67c0,1-0.72,1.6-1.92,1.6h-1.26v1.48h-0.5v-4.69h1.75
				C294.15,208.07,294.87,208.67,294.87,209.67z M294.38,209.67c0-0.75-0.5-1.18-1.43-1.18h-1.25v2.34h1.25
				C293.88,210.84,294.38,210.41,294.38,209.67z"/>
			<path class="st7" d="M298.46,210.57v2.18h-0.46v-0.55c-0.21,0.36-0.63,0.58-1.21,0.58c-0.8,0-1.29-0.42-1.29-1.02
				c0-0.54,0.35-1,1.36-1h1.12v-0.21c0-0.6-0.34-0.93-1-0.93c-0.45,0-0.88,0.16-1.17,0.42l-0.21-0.35c0.36-0.3,0.88-0.48,1.43-0.48
				C297.95,209.21,298.46,209.66,298.46,210.57z M297.99,211.7v-0.58h-1.1c-0.68,0-0.9,0.27-0.9,0.63c0,0.41,0.33,0.66,0.89,0.66
				C297.41,212.41,297.8,212.16,297.99,211.7z"/>
			<path class="st7" d="M299.26,212.35l0.21-0.38c0.28,0.22,0.76,0.39,1.25,0.39c0.67,0,0.94-0.23,0.94-0.58
				c0-0.92-2.28-0.19-2.28-1.59c0-0.58,0.5-1,1.39-1c0.46,0,0.95,0.13,1.25,0.33l-0.21,0.38c-0.31-0.21-0.68-0.3-1.04-0.3
				c-0.64,0-0.92,0.25-0.92,0.58c0,0.95,2.28,0.23,2.28,1.59c0,0.61-0.54,1-1.45,1C300.11,212.79,299.55,212.6,299.26,212.35z"/>
			<path class="st7" d="M302.54,212.35l0.21-0.38c0.28,0.22,0.76,0.39,1.25,0.39c0.67,0,0.94-0.23,0.94-0.58
				c0-0.92-2.28-0.19-2.28-1.59c0-0.58,0.5-1,1.39-1c0.46,0,0.95,0.13,1.25,0.33l-0.21,0.38c-0.31-0.21-0.68-0.3-1.04-0.3
				c-0.64,0-0.92,0.25-0.92,0.58c0,0.95,2.28,0.23,2.28,1.59c0,0.61-0.54,1-1.45,1C303.39,212.79,302.82,212.6,302.54,212.35z"/>
			<path class="st7" d="M311.4,209.23l-1.33,3.52h-0.45l-1.11-2.89l-1.11,2.89h-0.45l-1.33-3.52h0.46l1.1,2.99l1.13-2.99h0.41
				l1.12,2.99l1.12-2.99H311.4z"/>
			<path class="st7" d="M311.66,210.99c0-1.04,0.76-1.79,1.8-1.79c1.03,0,1.79,0.74,1.79,1.79c0,1.04-0.76,1.8-1.79,1.8
				C312.42,212.79,311.66,212.04,311.66,210.99z M314.76,210.99c0-0.82-0.56-1.37-1.31-1.37c-0.75,0-1.31,0.55-1.31,1.37
				c0,0.82,0.56,1.37,1.31,1.37C314.2,212.37,314.76,211.82,314.76,210.99z"/>
			<path class="st7" d="M317.98,209.21v0.46c-0.04,0-0.08-0.01-0.11-0.01c-0.74,0-1.19,0.47-1.19,1.3v1.8h-0.48v-3.52h0.46v0.69
				C316.89,209.45,317.33,209.21,317.98,209.21z"/>
			<path class="st7" d="M322.02,207.79v4.97h-0.46v-0.7c-0.29,0.48-0.78,0.73-1.36,0.73c-1,0-1.75-0.73-1.75-1.8
				c0-1.06,0.75-1.79,1.75-1.79c0.56,0,1.05,0.24,1.34,0.7v-2.12H322.02z M321.55,210.99c0-0.82-0.56-1.37-1.31-1.37
				c-0.75,0-1.31,0.55-1.31,1.37c0,0.82,0.56,1.37,1.31,1.37C320.99,212.37,321.55,211.82,321.55,210.99z"/>
		</g>
		<rect x="286.97" y="235.56" class="st8" width="95.47" height="16.35"/>
		<g class="st9">
			<path d="M298.89,228.79l-0.64-0.9c-0.07,0.01-0.14,0.01-0.22,0.01h-0.75v0.89h-0.3V226h1.05c0.71,0,1.14,0.36,1.14,0.96
				c0,0.44-0.23,0.75-0.64,0.88l0.68,0.96H298.89z M298.88,226.96c0-0.45-0.3-0.7-0.86-0.7h-0.74v1.4h0.74
				C298.58,227.66,298.88,227.4,298.88,226.96z"/>
			<path d="M301.64,227.83h-1.76c0.03,0.44,0.37,0.73,0.83,0.73c0.26,0,0.48-0.09,0.64-0.28l0.16,0.18
				c-0.19,0.22-0.48,0.34-0.81,0.34c-0.66,0-1.1-0.45-1.1-1.07c0-0.62,0.44-1.07,1.03-1.07s1.02,0.44,1.02,1.07
				C301.65,227.77,301.64,227.8,301.64,227.83z M299.88,227.62h1.49c-0.04-0.41-0.34-0.7-0.75-0.7
				C300.22,226.92,299.92,227.21,299.88,227.62z"/>
			<path d="M305.7,227.58v1.22h-0.28v-1.19c0-0.44-0.22-0.67-0.6-0.67c-0.43,0-0.7,0.28-0.7,0.76v1.1h-0.28v-1.19
				c0-0.44-0.22-0.67-0.61-0.67c-0.43,0-0.7,0.28-0.7,0.76v1.1h-0.28v-2.1h0.27v0.38c0.15-0.25,0.42-0.4,0.77-0.4
				c0.35,0,0.62,0.15,0.75,0.44c0.15-0.27,0.45-0.44,0.83-0.44C305.36,226.68,305.7,226.97,305.7,227.58z"/>
			<path d="M308.31,227.83h-1.76c0.03,0.44,0.37,0.73,0.83,0.73c0.26,0,0.48-0.09,0.64-0.28l0.16,0.18
				c-0.19,0.22-0.48,0.34-0.81,0.34c-0.66,0-1.1-0.45-1.1-1.07c0-0.62,0.44-1.07,1.03-1.07s1.02,0.44,1.02,1.07
				C308.32,227.77,308.31,227.8,308.31,227.83z M306.55,227.62h1.49c-0.04-0.41-0.34-0.7-0.75-0.7
				C306.89,226.92,306.59,227.21,306.55,227.62z"/>
			<path d="M312.37,227.58v1.22h-0.28v-1.19c0-0.44-0.22-0.67-0.6-0.67c-0.43,0-0.7,0.28-0.7,0.76v1.1h-0.28v-1.19
				c0-0.44-0.22-0.67-0.61-0.67c-0.43,0-0.7,0.28-0.7,0.76v1.1h-0.28v-2.1h0.27v0.38c0.15-0.25,0.42-0.4,0.77-0.4
				c0.35,0,0.62,0.15,0.75,0.44c0.15-0.27,0.45-0.44,0.83-0.44C312.03,226.68,312.37,226.97,312.37,227.58z"/>
			<path d="M315.27,227.74c0,0.64-0.45,1.07-1.05,1.07c-0.35,0-0.64-0.15-0.81-0.44v0.42h-0.27v-2.97h0.28v1.26
				c0.18-0.27,0.46-0.42,0.8-0.42C314.82,226.68,315.27,227.11,315.27,227.74z M314.99,227.74c0-0.49-0.34-0.82-0.78-0.82
				c-0.45,0-0.78,0.33-0.78,0.82s0.34,0.82,0.78,0.82C314.65,228.56,314.99,228.23,314.99,227.74z"/>
			<path d="M317.68,227.83h-1.76c0.03,0.44,0.37,0.73,0.83,0.73c0.26,0,0.48-0.09,0.64-0.28l0.16,0.18
				c-0.19,0.22-0.48,0.34-0.81,0.34c-0.66,0-1.1-0.45-1.1-1.07c0-0.62,0.44-1.07,1.03-1.07s1.02,0.44,1.02,1.07
				C317.69,227.77,317.68,227.8,317.68,227.83z M315.92,227.62h1.49c-0.04-0.41-0.34-0.7-0.75-0.7
				C316.26,226.92,315.96,227.21,315.92,227.62z"/>
			<path d="M319.33,226.68v0.28c-0.02,0-0.05,0-0.07,0c-0.44,0-0.71,0.28-0.71,0.78v1.07h-0.28v-2.1h0.27v0.41
				C318.67,226.82,318.94,226.68,319.33,226.68z"/>
			<path d="M324.39,227.58v1.22h-0.28v-1.19c0-0.44-0.22-0.67-0.6-0.67c-0.43,0-0.7,0.28-0.7,0.76v1.1h-0.28v-1.19
				c0-0.44-0.22-0.67-0.61-0.67c-0.43,0-0.7,0.28-0.7,0.76v1.1h-0.28v-2.1h0.27v0.38c0.15-0.25,0.42-0.4,0.77-0.4
				c0.35,0,0.62,0.15,0.75,0.44c0.15-0.27,0.45-0.44,0.83-0.44C324.05,226.68,324.39,226.97,324.39,227.58z"/>
			<path d="M327,227.83h-1.76c0.03,0.44,0.37,0.73,0.83,0.73c0.26,0,0.48-0.09,0.64-0.28l0.16,0.18c-0.19,0.22-0.48,0.34-0.81,0.34
				c-0.66,0-1.1-0.45-1.1-1.07c0-0.62,0.44-1.07,1.03-1.07s1.02,0.44,1.02,1.07C327.01,227.77,327,227.8,327,227.83z M325.24,227.62
				h1.49c-0.04-0.41-0.34-0.7-0.75-0.7C325.58,226.92,325.28,227.21,325.24,227.62z"/>
		</g>
		<rect x="285.97" y="234.56" class="st0" width="95.47" height="16.35"/>
		<g class="st9">
			<g>
				<path d="M316.47,261.3v1.1h1.45v0.26h-1.45v1.19h-0.3v-2.8h1.92v0.26H316.47z"/>
				<path d="M318.36,262.79c0-0.62,0.46-1.07,1.07-1.07s1.07,0.44,1.07,1.07c0,0.62-0.45,1.07-1.07,1.07
					S318.36,263.41,318.36,262.79z M320.21,262.79c0-0.49-0.33-0.82-0.78-0.82c-0.45,0-0.78,0.33-0.78,0.82
					c0,0.49,0.34,0.82,0.78,0.82C319.88,263.61,320.21,263.28,320.21,262.79z"/>
				<path d="M322.14,261.72V262c-0.02,0-0.05,0-0.07,0c-0.44,0-0.71,0.28-0.71,0.78v1.07h-0.28v-2.1h0.27v0.41
					C321.49,261.87,321.75,261.72,322.14,261.72z"/>
				<path d="M324.58,261.74v1.85c0,0.72-0.36,1.05-1.05,1.05c-0.38,0-0.76-0.12-0.98-0.32l0.14-0.22c0.2,0.18,0.5,0.29,0.83,0.29
					c0.53,0,0.78-0.24,0.78-0.76v-0.27c-0.18,0.27-0.48,0.41-0.82,0.41c-0.6,0-1.06-0.42-1.06-1.02c0-0.6,0.46-1.01,1.06-1.01
					c0.35,0,0.66,0.14,0.83,0.42v-0.4H324.58z M324.31,262.73c0-0.46-0.34-0.77-0.8-0.77c-0.46,0-0.8,0.31-0.8,0.77
					c0,0.46,0.33,0.77,0.8,0.77C323.97,263.51,324.31,263.19,324.31,262.73z"/>
				<path d="M325.17,262.79c0-0.62,0.46-1.07,1.07-1.07s1.07,0.44,1.07,1.07c0,0.62-0.45,1.07-1.07,1.07
					S325.17,263.41,325.17,262.79z M327.02,262.79c0-0.49-0.33-0.82-0.78-0.82c-0.45,0-0.78,0.33-0.78,0.82
					c0,0.49,0.34,0.82,0.78,0.82C326.69,263.61,327.02,263.28,327.02,262.79z"/>
				<path d="M328.99,263.71c-0.11,0.1-0.28,0.15-0.44,0.15c-0.4,0-0.62-0.22-0.62-0.61v-1.27h-0.38v-0.24h0.38v-0.46h0.28v0.46h0.64
					v0.24h-0.64v1.25c0,0.25,0.13,0.38,0.36,0.38c0.12,0,0.23-0.04,0.31-0.11L328.99,263.71z"/>
				<path d="M332.81,262c0,0.6-0.43,0.96-1.14,0.96h-0.75v0.88h-0.3v-2.8h1.05C332.38,261.04,332.81,261.4,332.81,262z M332.51,262
					c0-0.45-0.3-0.7-0.86-0.7h-0.74v1.4h0.74C332.22,262.69,332.51,262.44,332.51,262z"/>
				<path d="M334.96,262.54v1.3h-0.27v-0.33c-0.13,0.22-0.38,0.35-0.72,0.35c-0.48,0-0.77-0.25-0.77-0.61c0-0.32,0.21-0.6,0.81-0.6
					h0.67v-0.13c0-0.36-0.2-0.56-0.6-0.56c-0.27,0-0.53,0.1-0.7,0.25l-0.13-0.21c0.21-0.18,0.52-0.28,0.86-0.28
					C334.65,261.72,334.96,261.99,334.96,262.54z M334.67,263.21v-0.34h-0.66c-0.41,0-0.54,0.16-0.54,0.38c0,0.24,0.2,0.4,0.53,0.4
					C334.33,263.63,334.56,263.48,334.67,263.21z"/>
				<path d="M335.44,263.6l0.13-0.22c0.17,0.13,0.45,0.24,0.75,0.24c0.4,0,0.56-0.14,0.56-0.34c0-0.55-1.36-0.12-1.36-0.95
					c0-0.34,0.3-0.6,0.83-0.6c0.27,0,0.57,0.08,0.74,0.2l-0.12,0.23c-0.18-0.13-0.4-0.18-0.62-0.18c-0.38,0-0.55,0.15-0.55,0.35
					c0,0.57,1.36,0.14,1.36,0.95c0,0.36-0.32,0.6-0.87,0.6C335.95,263.86,335.61,263.75,335.44,263.6z"/>
				<path d="M337.39,263.6l0.13-0.22c0.17,0.13,0.45,0.24,0.75,0.24c0.4,0,0.56-0.14,0.56-0.34c0-0.55-1.36-0.12-1.36-0.95
					c0-0.34,0.3-0.6,0.83-0.6c0.27,0,0.57,0.08,0.74,0.2l-0.12,0.23c-0.18-0.13-0.4-0.18-0.62-0.18c-0.38,0-0.55,0.15-0.55,0.35
					c0,0.57,1.36,0.14,1.36,0.95c0,0.36-0.32,0.6-0.87,0.6C337.9,263.86,337.57,263.75,337.39,263.6z"/>
				<path d="M342.69,261.74l-0.8,2.1h-0.27l-0.66-1.72l-0.66,1.72h-0.27l-0.79-2.1h0.27l0.66,1.79l0.68-1.79h0.24l0.67,1.79
					l0.67-1.79H342.69z"/>
				<path d="M342.85,262.79c0-0.62,0.46-1.07,1.07-1.07c0.62,0,1.07,0.44,1.07,1.07c0,0.62-0.45,1.07-1.07,1.07
					C343.3,263.86,342.85,263.41,342.85,262.79z M344.7,262.79c0-0.49-0.33-0.82-0.78-0.82c-0.45,0-0.78,0.33-0.78,0.82
					c0,0.49,0.34,0.82,0.78,0.82C344.37,263.61,344.7,263.28,344.7,262.79z"/>
				<path d="M346.62,261.72V262c-0.02,0-0.05,0-0.07,0c-0.44,0-0.71,0.28-0.71,0.78v1.07h-0.28v-2.1h0.27v0.41
					C345.97,261.87,346.24,261.72,346.62,261.72z"/>
				<path d="M349.04,260.87v2.97h-0.27v-0.42c-0.17,0.28-0.46,0.44-0.81,0.44c-0.6,0-1.05-0.44-1.05-1.07
					c0-0.64,0.45-1.07,1.05-1.07c0.34,0,0.62,0.14,0.8,0.42v-1.26H349.04z M348.76,262.79c0-0.49-0.34-0.82-0.78-0.82
					c-0.45,0-0.78,0.33-0.78,0.82c0,0.49,0.34,0.82,0.78,0.82C348.42,263.61,348.76,263.28,348.76,262.79z"/>
				<path d="M351.11,261.75c0-0.29-0.24-0.49-0.64-0.49c-0.34,0-0.59,0.11-0.76,0.32l-0.21-0.16c0.22-0.26,0.55-0.42,1-0.42
					c0.56,0,0.92,0.27,0.92,0.7c0,0.68-0.73,0.72-0.73,1.29h-0.3C350.37,262.34,351.11,262.28,351.11,261.75z M350.31,263.65
					c0-0.12,0.09-0.2,0.21-0.2c0.12,0,0.21,0.09,0.21,0.2c0,0.11-0.09,0.21-0.21,0.21C350.41,263.86,350.31,263.76,350.31,263.65z"
					/>
			</g>
		</g>
		<rect x="286.7" y="224.4" class="st5" width="4.85" height="4.85"/>
		<g>
			<path class="st5" d="M323.17,239.68h0.8v4.9H327v0.7h-3.83V239.68z"/>
			<path class="st5" d="M327.36,243.15c0-1.26,0.94-2.16,2.21-2.16c1.27,0,2.2,0.9,2.2,2.16s-0.93,2.17-2.2,2.17
				C328.3,245.32,327.36,244.42,327.36,243.15z M330.99,243.15c0-0.9-0.61-1.49-1.42-1.49c-0.82,0-1.43,0.58-1.43,1.49
				c0,0.9,0.62,1.5,1.43,1.5C330.38,244.65,330.99,244.06,330.99,243.15z"/>
			<path class="st5" d="M336.89,241.03v3.66c0,1.5-0.76,2.17-2.2,2.17c-0.78,0-1.56-0.22-2.02-0.63l0.37-0.59
				c0.39,0.33,1.01,0.55,1.63,0.55c1,0,1.46-0.46,1.46-1.42v-0.34c-0.37,0.44-0.92,0.66-1.53,0.66c-1.22,0-2.15-0.83-2.15-2.06
				c0-1.22,0.93-2.05,2.15-2.05c0.63,0,1.21,0.23,1.57,0.7v-0.66H336.89z M336.14,243.04c0-0.82-0.61-1.38-1.46-1.38
				c-0.86,0-1.46,0.55-1.46,1.38c0,0.82,0.61,1.38,1.46,1.38C335.53,244.42,336.14,243.86,336.14,243.04z"/>
			<path class="st5" d="M338.22,239.72c0-0.28,0.22-0.5,0.52-0.5c0.3,0,0.52,0.22,0.52,0.49c0,0.29-0.22,0.51-0.52,0.51
				C338.44,240.22,338.22,240,338.22,239.72z M338.35,241.03h0.77v4.24h-0.77V241.03z"/>
			<path class="st5" d="M344.61,242.83v2.44h-0.77v-2.35c0-0.83-0.42-1.24-1.14-1.24c-0.82,0-1.34,0.49-1.34,1.41v2.18h-0.77v-4.24
				h0.74v0.64c0.31-0.43,0.86-0.68,1.53-0.68C343.88,240.99,344.61,241.59,344.61,242.83z"/>
		</g>
		<g>
			<polygon class="st7" points="288.68,228.16 287.61,227 287.98,226.66 288.69,227.43 290.29,225.78 290.65,226.12 			"/>
		</g>
		<g class="st6">
			<g>
				<g>
					<path class="st7" d="M372.38,213.74L372.38,213.74c-1.66,0-3.21-0.92-4.38-2.58l-0.1-0.14l0.1-0.14
						c1.16-1.66,2.72-2.58,4.38-2.58c1.66,0,3.21,0.92,4.38,2.58l0.1,0.14l-0.1,0.14C375.6,212.82,374.04,213.74,372.38,213.74z
						 M368.52,211.02c1.05,1.43,2.42,2.22,3.86,2.22c1.44,0,2.81-0.79,3.86-2.22c-1.05-1.43-2.42-2.22-3.86-2.22
						C370.94,208.8,369.57,209.58,368.52,211.02z"/>
				</g>
				<g>
					<path class="st7" d="M372.38,212.87c-1.02,0-1.85-0.83-1.85-1.85c0-1.02,0.83-1.85,1.85-1.85c1.02,0,1.85,0.83,1.85,1.85
						C374.24,212.04,373.41,212.87,372.38,212.87z M372.38,209.66c-0.75,0-1.35,0.61-1.35,1.35c0,0.75,0.61,1.35,1.35,1.35
						c0.75,0,1.35-0.61,1.35-1.35C373.74,210.27,373.13,209.66,372.38,209.66z"/>
				</g>
			</g>
			<g>
				
					<rect x="368.21" y="210.77" transform="matrix(0.7071 -0.7071 0.7071 0.7071 -40.1437 325.1205)" class="st7" width="8.34" height="0.5"/>
			</g>
		</g>
		<g class="st9">
			<path d="M322.05,171.92l0.2-0.4c0.35,0.34,0.97,0.6,1.62,0.6c0.92,0,1.32-0.38,1.32-0.87c0-1.34-3.02-0.52-3.02-2.33
				c0-0.72,0.56-1.34,1.81-1.34c0.55,0,1.13,0.16,1.52,0.43l-0.17,0.41c-0.42-0.27-0.91-0.41-1.34-0.41c-0.9,0-1.3,0.4-1.3,0.89
				c0,1.34,3.02,0.53,3.02,2.32c0,0.72-0.57,1.34-1.83,1.34C323.14,172.56,322.42,172.3,322.05,171.92z"/>
			<path d="M326.61,167.67c0-0.19,0.16-0.35,0.36-0.35s0.36,0.15,0.36,0.34c0,0.2-0.15,0.36-0.36,0.36
				C326.77,168.03,326.61,167.87,326.61,167.67z M326.72,168.83h0.5v3.68h-0.5V168.83z"/>
			<path d="M332.02,168.83v3.24c0,1.27-0.62,1.84-1.84,1.84c-0.67,0-1.33-0.2-1.72-0.57l0.25-0.38c0.35,0.31,0.88,0.5,1.45,0.5
				c0.93,0,1.36-0.43,1.36-1.34v-0.47c-0.31,0.47-0.83,0.71-1.44,0.71c-1.05,0-1.85-0.74-1.85-1.79c0-1.06,0.8-1.78,1.85-1.78
				c0.62,0,1.15,0.25,1.46,0.74v-0.71H332.02z M331.53,170.59c0-0.8-0.59-1.34-1.4-1.34s-1.39,0.55-1.39,1.34
				c0,0.8,0.58,1.35,1.39,1.35S331.53,171.38,331.53,170.59z"/>
			<path d="M336.8,170.38v2.14h-0.5v-2.09c0-0.78-0.41-1.18-1.11-1.18c-0.79,0-1.29,0.49-1.29,1.33v1.93h-0.5v-3.68h0.48v0.68
				c0.27-0.45,0.76-0.71,1.4-0.71C336.18,168.81,336.8,169.32,336.8,170.38z"/>
			<path d="M339.87,167.67c0-0.19,0.16-0.35,0.36-0.35c0.2,0,0.36,0.15,0.36,0.34c0,0.2-0.15,0.36-0.36,0.36
				C340.03,168.03,339.87,167.87,339.87,167.67z M339.98,168.83h0.5v3.68h-0.5V168.83z"/>
			<path d="M345.25,170.38v2.14h-0.5v-2.09c0-0.78-0.41-1.18-1.11-1.18c-0.79,0-1.29,0.49-1.29,1.33v1.93h-0.5v-3.68h0.48v0.68
				c0.27-0.45,0.76-0.71,1.4-0.71C344.64,168.81,345.25,169.32,345.25,170.38z"/>
		</g>
	</g>
</g>
<g id="Speech_bubble">
	<g>
		<g>
			<path class="st0" d="M181.28,148.26h-28.73c-4.89,0-8.85,3.96-8.85,8.85v25c0,4.89,3.96,8.85,8.85,8.85h8.39l-7.03,13.9
				l12.98-13.9h14.39c4.89,0,8.85-3.96,8.85-8.85v-25C190.12,152.22,186.16,148.26,181.28,148.26z"/>
			<path class="st10" d="M181.28,148.26h-28.73c-4.89,0-8.85,3.96-8.85,8.85v25c0,4.89,3.96,8.85,8.85,8.85h8.39l-7.03,13.9
				l12.98-13.9h14.39c4.89,0,8.85-3.96,8.85-8.85v-25C190.12,152.22,186.16,148.26,181.28,148.26z"/>
		</g>
		<g>
			<g class="st11">
				
					<ellipse transform="matrix(0.7071 -0.7071 0.7071 0.7071 -70.9682 167.6701)" class="st0" cx="166.91" cy="169.5" rx="14.26" ry="14.26"/>
			</g>
			<g>
				<path class="st5" d="M165.42,175.87c-0.38,0-0.75-0.17-1-0.46l-5.59-6.59c-0.47-0.55-0.4-1.38,0.15-1.85
					c0.55-0.47,1.38-0.4,1.85,0.15l4.6,5.41l7.59-8.94c0.47-0.55,1.3-0.62,1.85-0.15c0.55,0.47,0.62,1.3,0.15,1.85l-8.59,10.12
					C166.17,175.7,165.8,175.87,165.42,175.87z"/>
			</g>
		</g>
	</g>
</g>
<g id="Character">
	<g>
		<g>
			<path class="st7" d="M204.99,417.12h58.2c0.63,0,1.14-0.51,1.14-1.14v-3.71c0-0.63-0.51-1.14-1.14-1.14h-55.2V292.3h54.26
				c1.15,0,2.09-0.93,2.09-2.09v-3.91h-59.34c-1.66,0-3,1.34-3,3v124.82C201.99,415.78,203.34,417.12,204.99,417.12z"/>
		</g>
		<g class="st12">
			<path class="st5" d="M201.99,289.3v124.81c0,1.66,1.34,3,3,3h58.2c0.63,0,1.14-0.51,1.14-1.14v-3.71c0-0.63-0.51-1.15-1.14-1.15
				h-55.2V292.3h54.26c1.15,0,2.08-0.94,2.08-2.09v-3.91h-59.34C203.33,286.3,201.99,287.64,201.99,289.3z"/>
		</g>
		<path class="st8" d="M201.99,289.3v31.83c2,0.51,4,1,6,1.47v-30.3h54.26c1.15,0,2.08-0.94,2.08-2.09v-3.91h-59.34
			C203.33,286.3,201.99,287.64,201.99,289.3z"/>
		<g>
			<path class="st7" d="M96.75,400.37l23.87-2.08v-31.34H129v31.33l23.95,2.09c2.11,0.21,3.72,1.98,3.72,4.1v3.18h-31.04h-1.56
				H93.03v-3.18C93.03,402.35,94.64,400.58,96.75,400.37z"/>
			<path class="st4" d="M96.75,400.37l23.87-2.08v-31.34H129v31.33l23.95,2.09c2.11,0.21,3.72,1.98,3.72,4.1v3.18h-31.04h-1.56
				H93.03v-3.18C93.03,402.35,94.64,400.58,96.75,400.37z"/>
			<path class="st7" d="M148.95,411.6c0,3.03,2.46,5.49,5.49,5.49c3.03,0,5.49-2.46,5.49-5.49c0-3.03-2.46-5.49-5.49-5.49
				C151.4,406.11,148.95,408.57,148.95,411.6z"/>
			<path class="st7" d="M100.75,411.6c0,3.03-2.46,5.49-5.49,5.49c-3.03,0-5.49-2.46-5.49-5.49c0-3.03,2.46-5.49,5.49-5.49
				C98.3,406.11,100.75,408.57,100.75,411.6z"/>
			<path class="st7" d="M122.88,373.34h3.85c2.05,0,3.71-1.66,3.71-3.71v-26.97h-11.28v26.97
				C119.17,371.68,120.83,373.34,122.88,373.34z"/>
			<path class="st13" d="M122.88,373.34h3.85c2.05,0,3.71-1.66,3.71-3.71v-26.97h-11.28v26.97
				C119.17,371.68,120.83,373.34,122.88,373.34z"/>
			<path class="st7" d="M100.06,280.66c0,0,2.58,51.83,13.75,60.75h-11.94c0,0-10.65-17.66-11.44-60.75H100.06z"/>
			<path class="st4" d="M100.06,280.66c0,0,2.58,51.83,13.75,60.75h-11.94c0,0-10.65-17.66-11.44-60.75H100.06z"/>
			<path class="st0" d="M152.01,337.11H99.09c-2.48,0-4.49,2.01-4.49,4.49v4.1h61.91v-4.1C156.5,339.13,154.49,337.11,152.01,337.11
				z"/>
			<g>
				<path class="st7" d="M157.05,341.41H94.04c-1,0-1.81,0.81-1.81,1.81v0.68c0,1,0.81,1.81,1.81,1.81h63.01
					c1,0,1.81-0.81,1.81-1.81v-0.68C158.86,342.22,158.05,341.41,157.05,341.41z"/>
				<path class="st3" d="M157.05,341.41H94.04c-1,0-1.81,0.81-1.81,1.81v0.68c0,1,0.81,1.81,1.81,1.81h63.01
					c1,0,1.81-0.81,1.81-1.81v-0.68C158.86,342.22,158.05,341.41,157.05,341.41z"/>
			</g>
			<path class="st0" d="M88.33,292.01l19.12,0c5.6,0,9.65-5.03,9.04-11.24l-0.82-8.29c-0.61-6.21-5.65-11.24-11.25-11.24H85.3
				c-5.6,0-9.65,5.03-9.04,11.24l0.82,8.29C77.69,286.97,82.73,292.01,88.33,292.01z"/>
		</g>
		<g id="_x3C_Group_x3E__3_">
			<g>
				<path class="st14" d="M151.46,247.29l0.92,2.82c0.32,0.96,0.66,1.92,1.01,2.88c0.69,1.91,1.43,3.79,2.2,5.6
					c0.78,1.81,1.63,3.56,2.53,5.13c0.9,1.55,1.92,2.97,2.73,3.7c0.51,0.56,2.03,1.25,3.76,1.71c1.75,0.44,3.7,0.81,5.7,1.04
					c4,0.5,8.27,0.7,12.42,0.87l0.74,5.59c-4.42,1.19-8.8,1.88-13.43,2.13c-2.31,0.09-4.68,0.1-7.18-0.23
					c-1.26-0.17-2.55-0.41-3.92-0.82c-0.68-0.2-1.39-0.47-2.12-0.81c-0.7-0.31-1.55-0.81-2.18-1.27c-2.63-1.9-4.24-3.99-5.68-6.06
					c-1.43-2.07-2.58-4.16-3.61-6.27c-1.04-2.1-1.93-4.23-2.73-6.37c-0.39-1.07-0.77-2.15-1.13-3.24c-0.37-1.1-0.68-2.14-1-3.37
					L151.46,247.29z"/>
			</g>
			<path class="st7" d="M146.55,242.02c3.15,1.08,6.02,5.61,13.93,23.78c0,0,1.29,2.23,7.71,3.61l-0.59,10.21
				c0,0-9.18-0.4-11.31-1.88c-2.13-1.48-14.9-22.47-14.9-22.47L146.55,242.02z"/>
			<path class="st13" d="M168.2,269.41l-0.59,10.2c0,0-7.36-0.32-10.43-1.45c-0.36-0.13-0.66-0.27-0.88-0.42
				c-1.23-0.86-6.03-8.25-9.85-14.33c-2.79-4.42-5.05-8.15-5.05-8.15l5.15-13.24c3.15,1.08,6.02,5.61,13.94,23.77
				C160.49,265.79,161.77,268.02,168.2,269.41z"/>
			<path class="st15" d="M157.18,278.16c-0.36-0.13-0.66-0.27-0.88-0.42c-1.23-0.86-6.03-8.25-9.85-14.33
				c1.64-5.7,3.52-10.16,3.52-10.16S157.32,267.92,157.18,278.16z"/>
			<g>
				<path class="st16" d="M180.54,271.55l7.17-2.59l-0.88,9.6c0,0-6.58,0.84-7.39-2.62L180.54,271.55z"/>
				<polygon class="st16" points="193.65,270.91 192.55,278.82 186.83,278.57 187.71,268.97 				"/>
			</g>
			<polygon class="st7" points="168.25,268.97 171.91,270.07 170.57,279.99 166.91,280.62 			"/>
			<path class="st0" d="M151.74,305.09c0,0,48.39,19.08,59.64,27.07c11.25,7.98,39.63,61.78,39.63,61.78l-11.73,9.04
				c0,0-33.84-49.14-37.97-52.47c-4.13-3.33-58.03-19.86-58.03-19.86L151.74,305.09z"/>
			<path class="st17" d="M251.02,393.94l-11.73,9.04c0,0-7.9-11.47-16.53-23.7c-9.23-13.09-19.3-27.05-21.44-28.77
				c-3.02-2.44-32.65-11.94-48.36-16.86c-5.78-1.82-9.67-3.01-9.67-3.01l8.46-25.55c0,0,48.38,19.09,59.64,27.07
				C222.64,340.14,251.02,393.94,251.02,393.94z"/>
			<polygon class="st16" points="253.15,413.19 258.8,407.51 249.56,393.22 243.92,398.9 			"/>
			<polygon class="st15" points="243.92,398.9 249.56,393.23 254.84,401.4 249,406.78 			"/>
			<g>
				<path class="st0" d="M259.78,406.89c0.02,0.01,0.04,0.03,0.06,0.02c0.02-0.01,0.04-0.03,0.05-0.05
					c0.67-0.24,1.31-0.56,1.91-0.94c0.48-0.25,0.84-0.66,1.03-1.16c0.07-0.38-0.08-0.77-0.39-0.99c-0.17-0.17-0.41-0.25-0.65-0.2
					c-0.55,0.13-1.09,0.91-1.5,1.66c0.02-0.79-0.11-1.6-0.46-1.95c-0.24-0.23-0.59-0.28-0.87-0.1c-0.26,0.13-0.43,0.35-0.49,0.63
					c-0.23,1.08,1.23,2.82,1.3,2.92c0,0,0.09-0.11,0.09-0.11c0,0,0,0,0,0c0,0-0.09,0.11-0.09,0.11c0.01,0.01-0.08,0.11-0.07,0.12
					C259.73,406.88,259.75,406.89,259.78,406.89z M259.83,406.15c-0.03,0.06-0.05,0.12-0.07,0.17c-0.44-0.62-1.09-1.71-0.95-2.35
					c0.02-0.15,0.11-0.28,0.24-0.36l0.08-0.05c0.24-0.12,0.37-0.05,0.44,0.03C259.93,403.99,260.02,405.27,259.83,406.15z
					 M260.17,406.39c0.44-1.01,1.17-2.31,1.72-2.43c0.12-0.03,0.24,0.01,0.32,0.1c0.19,0.15,0.29,0.39,0.26,0.63
					C262.36,405.21,261.51,405.83,260.17,406.39z"/>
			</g>
			<path class="st7" d="M258.69,406.38l-7.46,5c-0.27,0.16-0.35,0.51-0.19,0.78c0,0,0,0.01,0,0.01l3.6,6.15
				c0.43,0.64,1.3,0.82,1.95,0.4c2.57-1.79,3.71-2.77,6.98-5c2.01-1.36,6.11-3.85,8.57-6.13c2.46-2.29,0.13-4.65-1.11-3.9
				c-2.95,1.77-8.08,2.53-10.94,2.31C259.59,405.96,259.1,406.1,258.69,406.38z"/>
			<polygon class="st0" points="239.82,406.91 254.47,397.16 251.09,390.27 235.22,401.28 			"/>
			<polygon class="st18" points="239.82,406.91 254.47,397.16 251.09,390.27 235.22,401.28 			"/>
			<path class="st15" d="M222.76,379.28c-9.23-13.09-19.3-27.05-21.44-28.77c-3.02-2.44-32.65-11.94-48.36-16.86l-1.83-19.05
				l5.74-1.02l0.65,1.46c0,0,35.86,8.13,45.99,13.21C210.05,331.53,218.82,363.61,222.76,379.28z"/>
			<g>
				<path class="st0" d="M220.61,408.79c0.02,0.01,0.03,0.04,0.05,0.04c0.02,0,0.04-0.01,0.06-0.03c0.71-0.01,1.42-0.09,2.11-0.25
					c0.53-0.07,1.02-0.34,1.36-0.76c0.19-0.33,0.18-0.75-0.04-1.07c-0.1-0.22-0.31-0.38-0.55-0.41c-0.56-0.06-1.33,0.5-1.97,1.07
					c0.28-0.74,0.43-1.54,0.21-1.99c-0.15-0.29-0.46-0.46-0.78-0.39c-0.29,0.04-0.52,0.19-0.68,0.43c-0.57,0.95,0.22,3.07,0.26,3.19
					c0,0,0.12-0.07,0.12-0.07c0,0,0,0,0,0c0,0-0.12,0.08-0.12,0.08c0,0.01-0.11,0.08-0.1,0.09
					C220.56,408.75,220.59,408.77,220.61,408.79z M220.91,408.1c-0.05,0.05-0.09,0.09-0.13,0.14c-0.21-0.73-0.46-1.98-0.12-2.54
					c0.07-0.13,0.2-0.23,0.34-0.26l0.09-0.02c0.27-0.04,0.37,0.07,0.41,0.17C221.72,406.1,221.37,407.33,220.91,408.1z
					 M221.14,408.44c0.75-0.8,1.87-1.79,2.43-1.72c0.12,0.01,0.22,0.09,0.27,0.2c0.13,0.2,0.14,0.46,0.04,0.68
					C223.6,408.05,222.6,408.36,221.14,408.44z"/>
			</g>
			<polygon class="st16" points="212.27,412.53 219.48,409.04 215.19,391.86 207.99,395.35 			"/>
			<polygon class="st15" points="207.99,395.35 215.19,391.87 217.64,401.69 210.34,404.82 			"/>
			<path class="st7" d="M219.75,407.94l-8.7,2.25c-0.31,0.06-0.5,0.37-0.44,0.67c0,0,0,0.01,0,0.01l1.36,7
				c0.19,0.75,0.95,1.2,1.71,1.02c3.02-0.83,4.42-1.38,8.24-2.4c2.35-0.61,7.04-1.6,10.12-2.95c3.08-1.34,1.67-4.35,0.25-4.05
				c-3.37,0.69-8.46-0.3-11.09-1.45C220.74,407.85,220.23,407.81,219.75,407.94z"/>
			<path class="st0" d="M218.7,395.12c0,0-12.19-61.21-14.68-64.86c-4.07-5.96-52.89-15.66-52.89-15.66l5.73-1.03l-6.63-17.57
				l-43.47,1.71c0,0,0.91,28.72,5.33,36.42c4.42,7.7,69.82,11.24,74.06,12.98c4.24,1.74,17.23,49.77,17.23,49.77L218.7,395.12z"/>
			<path class="st17" d="M218.7,395.12c0,0-12.19-61.21-14.68-64.86c-4.07-5.96-52.89-15.66-52.89-15.66l5.73-1.03l-6.63-17.57
				l-43.47,1.71c0,0,0.91,28.72,5.33,36.42c4.42,7.7,69.82,11.24,74.06,12.98c4.24,1.74,17.23,49.77,17.23,49.77L218.7,395.12z"/>
			<polygon class="st0" points="203.63,402.32 220.69,397.98 219.78,390.36 201.16,395.49 			"/>
			<polygon class="st18" points="203.63,402.32 220.69,397.98 219.78,390.36 201.16,395.49 			"/>
			<g>
				<polygon class="st7" points="120.52,298.38 107.92,298.16 107.65,301.98 121.07,302.3 				"/>
				<polygon class="st7" points="122.46,298.31 123.01,302.27 151.13,301.87 150.22,298.26 				"/>
				<path class="st5" d="M135.99,299.03l0.37,2.62c0.09,0.64,0.69,1.14,1.35,1.12l4.5-0.14c0.65-0.02,1.11-0.55,1.02-1.19
					l-0.37-2.62c-0.09-0.64-0.69-1.14-1.35-1.12l-4.5,0.14C136.35,297.86,135.9,298.39,135.99,299.03z"/>
			</g>
			<g>
				<path class="st7" d="M107.86,297.61h41.3c1.03,0,1.9-0.77,2.03-1.78c5.1-39.96-4.64-53.81-4.64-53.81
					c-3.71-1.06-7.49-1.83-11.32-2.3c-5.59-0.44-11.2-0.57-16.81-0.36c-3.83,0.1-7.65,0.48-11.42,1.13
					c-2.05,0.86-4.08,9.78-2.05,37.54c0.53,7.27,0.62,13.55,0.56,17.23C105.5,296.55,106.55,297.61,107.86,297.61z"/>
				<polygon class="st7" points="140.76,256.17 148.72,256.17 149.32,265.67 145.05,268.43 140.76,266.32 				"/>
				<path class="st13" d="M151.19,295.83c-0.13,1.02-1,1.78-2.03,1.78h-41.3c-1.3,0-2.36-1.06-2.34-2.36
					c0.05-3.68-0.03-9.96-0.56-17.23c-0.29-3.99-0.5-7.6-0.63-10.84c-0.34-7.85-0.24-13.6,0.1-17.72c0.5-6.02,1.53-8.53,2.57-8.98
					c3.78-0.65,7.6-1.03,11.43-1.13c5.6-0.2,11.21-0.08,16.8,0.36c3.83,0.48,7.61,1.25,11.32,2.31
					C146.55,242.02,156.29,255.87,151.19,295.83z"/>
			</g>
			<path class="st16" d="M118.8,238.94l13.34,4.55l0.54-3.82c-1.3-2.28-1.63-3.72-0.53-6.37l-8.91-10.23
				C123.48,228.31,122.53,235.47,118.8,238.94z"/>
			<path class="st5" d="M127.24,245.47l2.62,1.08l2.29,1.44c0,0,3.04,17.46,2.19,32.19l2.56,2.1l2.7-2.17c0,0-3.36-27.06-4.57-32.34
				l0.52-1.26l1.23-2.62l-2.28-1.19l-3.6,0.79h-2.52L127.24,245.47z"/>
			<path class="st15" d="M126.87,227.24l5.27,6.06c-0.4,0.93-0.72,1.89-0.95,2.87c-2.23-0.67-4.98-3.64-4.87-6.06
				C126.33,229.13,126.51,228.16,126.87,227.24z"/>
			<path class="st7" d="M119.63,236.52c0,0,5.18,3.61,12.02,6.25c0,0,0.81-3.03,0-5.67l5.89,2.94c0,0,0.49,4.57-0.87,6.95
				l-4.32-3.16l-4.86,3.96c0,0-9.2-3.55-10.64-8.37L119.63,236.52z"/>
			<path class="st15" d="M149.64,272.04l-13.66,10.99c-19.58,4.36-28.19-7.85-31.65-15.85c-0.34-7.85-0.24-13.6,0.1-17.72
				c4.7-0.22,10.55-0.22,12.13,0.99c2.75,2.11,12.33,16.9,13.76,17.98C131.76,269.52,149.64,272.04,149.64,272.04z"/>
			<g>
				<path class="st16" d="M157.4,271.48l7.17-2.59l-0.88,9.6c0,0-6.58,0.84-7.39-2.62L157.4,271.48z"/>
				<polygon class="st16" points="170.51,270.83 169.41,278.74 163.69,278.49 164.57,268.89 				"/>
			</g>
			<g>
				<path class="st14" d="M115.69,252.11l1.62,3.08c0.56,1.05,1.14,2.08,1.74,3.11c1.16,2.06,2.38,4.07,3.64,5.98
					c1.27,1.89,2.59,3.71,3.95,5.13c0.66,0.72,1.33,1.32,1.87,1.71c0.17,0.13,0.2,0.13,0.25,0.17c0.04,0.05,0.23,0.1,0.34,0.16
					c0.15,0.06,0.35,0.11,0.52,0.17l0.64,0.16c1.85,0.41,4.19,0.54,6.52,0.58c2.35,0.04,4.77-0.04,7.2-0.15
					c4.86-0.25,9.84-0.63,14.74-1.07l1.19,5.52c-4.92,1.59-9.84,2.87-14.94,3.83c-2.54,0.5-5.13,0.86-7.79,1.14
					c-2.68,0.23-5.38,0.39-8.5,0.05c-0.41-0.06-0.79-0.11-1.21-0.19c-0.43-0.1-0.84-0.17-1.3-0.3c-0.48-0.15-0.9-0.25-1.43-0.48
					c-0.52-0.22-1.06-0.46-1.42-0.67c-1.63-0.89-2.9-1.88-4.06-2.9c-2.26-2.06-4.08-4.18-5.71-6.38c-1.64-2.19-3.1-4.43-4.45-6.7
					c-0.66-1.15-1.3-2.3-1.92-3.46c-0.63-1.18-1.2-2.3-1.8-3.62L115.69,252.11z"/>
			</g>
			<path class="st7" d="M107,240.48c-12.9,4.65,3.83,36.79,10.86,40.39c7.03,3.6,18.93,2.07,18.93,2.07l0.84-11.17
				c0,0-6.16-0.75-8-1.19c-2.92-0.7-8.85-13.64-12.83-20.68S107,240.48,107,240.48z"/>
			<path class="st13" d="M107,240.48c-12.9,4.65,3.83,36.79,10.86,40.39c7.03,3.6,18.93,2.07,18.93,2.07l0.84-11.17
				c0,0-6.16-0.75-8-1.19c-2.92-0.7-8.85-13.64-12.83-20.68S107,240.48,107,240.48z"/>
			<polygon class="st7" points="135.98,270.99 134.93,283.96 138.63,283.27 139.6,271.68 			"/>
			<g>
				<path class="st7" d="M146.18,212.53c0.51,2.99-0.78,8.82-4.53,6.36C137.9,216.43,145.29,207.39,146.18,212.53z"/>
				<path class="st16" d="M124.97,213.6c-1.44,7.32-2.66,11.53,0.03,16.14c4.04,6.94,13.83,5.89,17.44-0.87
					c3.25-6.08,5.06-17.02-1.27-21.67C134.93,202.63,126.42,206.29,124.97,213.6z"/>
				<path class="st7" d="M121.48,205.53l8.29-0.38l0.22,4.76c-0.16-0.09-0.33-0.18-0.48-0.27c0,0-0.53,6.95-4.49,9.32
					C119.64,214.87,118.06,208.16,121.48,205.53z"/>
				<path class="st16" d="M120.62,218.88c0.09,2,1.1,3.77,2.35,4.86c1.87,1.63,3.89,0.21,4.28-2.11c0.35-2.09-0.2-5.46-2.51-6.19
					C122.46,214.71,120.52,216.59,120.62,218.88z"/>
				<path class="st7" d="M135.42,218.37c-0.15,0.59,0.03,1.14,0.42,1.24c0.39,0.1,0.82-0.3,0.98-0.89c0.15-0.59-0.03-1.14-0.42-1.24
					C136.01,217.39,135.57,217.79,135.42,218.37z"/>
				<path class="st7" d="M142.07,220.05c-0.15,0.59,0.03,1.14,0.42,1.24c0.38,0.1,0.82-0.3,0.98-0.89c0.15-0.59-0.03-1.14-0.42-1.24
					C142.66,219.06,142.23,219.46,142.07,220.05z"/>
				<path class="st19" d="M139.88,219.81c0,0,0.52,3.6,1.59,5.56c-1.27,0.66-2.92-0.23-2.92-0.23L139.88,219.81z"/>
				<path class="st7" d="M134.81,226.58c0.23,0.09,0.48,0.18,0.75,0.24c0.1,0.02,0.19-0.03,0.22-0.13c0.03-0.1-0.03-0.19-0.13-0.22
					c-2.59-0.65-3.32-2.75-3.33-2.77c-0.03-0.09-0.13-0.14-0.23-0.11c-0.09,0.03-0.14,0.13-0.11,0.23
					C132.01,223.91,132.65,225.72,134.81,226.58z"/>
				<path class="st7" d="M133.93,215.72c0.12,0.05,0.25,0.03,0.36-0.05c1.25-0.99,2.5-0.6,2.52-0.59c0.19,0.06,0.39-0.04,0.45-0.23
					c0.06-0.19-0.04-0.39-0.22-0.45c-0.07-0.02-1.64-0.52-3.19,0.71c-0.16,0.12-0.18,0.35-0.06,0.5
					C133.82,215.66,133.87,215.7,133.93,215.72z"/>
				<path class="st7" d="M145.54,218.49c0.06,0.03,0.13,0.03,0.21,0.02c0.19-0.04,0.32-0.23,0.28-0.42
					c-0.39-1.93-1.91-2.53-1.98-2.56c-0.18-0.07-0.39,0.02-0.46,0.2c-0.07,0.18,0.02,0.39,0.2,0.46c0.06,0.02,1.23,0.5,1.54,2.05
					C145.35,218.35,145.43,218.44,145.54,218.49z"/>
				<path class="st7" d="M126.94,211.42c0,0,0.18,0.17,0.5,0.35c0.64,0.37,1.83,0.81,3.2,0.13c2.06-1.01,2.71-6.87,8.58-3.89
					c0,0,2.01-0.61,3.52,1.24c1.51,1.85,0.47,8.6,3.69,7.67c3.22-0.93,2.66-1.93,2.66-1.93s-0.9,0.57-1.44,0.12
					c0,0,1.69-1.4,0.88-3.37c0,0-0.78,0.92-1.31,0.74c0,0,0.98-3.45-0.89-8.11c-1.86-4.66-13.31-3.62-13.31-3.62
					s-1.44-2.41-6.61-0.73c-5.17,1.68-7.53,7.91-6.71,10.62"/>
			</g>
		</g>
		<g>
			<polygon class="st7" points="195.2,277.74 194.46,274.95 164.13,274.95 150.17,276.34 149.64,277.74 			"/>
			<polygon class="st20" points="195.2,277.74 194.46,274.95 164.13,274.95 150.17,276.34 149.64,277.74 			"/>
			<polygon class="st15" points="164.13,274.95 164.13,277.74 195.2,277.74 194.46,274.95 			"/>
		</g>
		<g>
			<path class="st7" d="M174.39,261.59c-0.13,1.47,0.94,2.67,2.41,2.67h46.46c1.47,0,2.77-1.2,2.91-2.67l2.76-29.74
				c0.03-0.31,0.01-0.6-0.06-0.87c-0.26-1.05-1.18-1.8-2.35-1.8h-46.46c-1.47,0-2.77,1.2-2.91,2.67L174.39,261.59z"/>
			<path class="st20" d="M174.39,261.59c-0.13,1.47,0.94,2.67,2.41,2.67h46.46c1.47,0,2.77-1.2,2.91-2.67l2.76-29.74
				c0.03-0.31,0.01-0.6-0.06-0.87c-0.26-1.05-1.18-1.8-2.35-1.8h-46.46c-1.47,0-2.77,1.2-2.91,2.67L174.39,261.59z"/>
			<path class="st21" d="M176.97,264.26h46.29c1.47,0,2.77-1.2,2.91-2.67l2.76-29.74c0.03-0.31,0.01-0.6-0.06-0.87h-46.29
				c-1.47,0-2.77,1.2-2.91,2.67l-2.76,29.74C176.88,263.7,176.9,264,176.97,264.26z"/>
			<polygon class="st7" points="208.88,246.02 199.27,246.02 201.83,273.54 186.64,275.82 186.64,277.74 218.64,277.74 
				218.64,275.82 212.09,273.54 			"/>
			<polygon class="st20" points="208.88,246.02 199.27,246.02 201.83,273.54 186.64,275.82 186.64,277.74 218.64,277.74 
				218.64,275.82 212.09,273.54 			"/>
			<polygon class="st13" points="199.27,246.02 206.39,277.3 212.09,277.13 208.88,246.02 			"/>
		</g>
		<g>
			<g>
				<path class="st7" d="M119.94,417.12h58.2c0.63,0,1.14-0.51,1.14-1.14v-3.71c0-0.63-0.51-1.14-1.14-1.14h-55.2V292.3h54.26
					c1.15,0,2.09-0.93,2.09-2.09v-3.91h-59.34c-1.66,0-3,1.34-3,3v124.82C116.94,415.78,118.28,417.12,119.94,417.12z"/>
			</g>
			<g class="st22">
				<path class="st5" d="M119.94,417.12h58.2c0.63,0,1.14-0.51,1.14-1.14v-3.71c0-0.63-0.51-1.14-1.14-1.14h-55.2V292.3h54.26
					c1.15,0,2.09-0.93,2.09-2.09v-3.91h-59.34c-1.66,0-3,1.34-3,3v124.82C116.94,415.78,118.28,417.12,119.94,417.12z"/>
			</g>
			<g>
				<path class="st0" d="M112.49,287.29h153.42c1.07,0,1.94-0.87,1.94-1.94v-4.72h-157.3v4.72
					C110.54,286.42,111.41,287.29,112.49,287.29z"/>
			</g>
			
				<rect x="110.54" y="280.62" transform="matrix(-1 -1.224647e-16 1.224647e-16 -1 378.3936 564.582)" class="st15" width="157.3" height="3.33"/>
			<g>
				<path class="st0" d="M107.25,281.49h163.9c1.04,0,1.88-0.84,1.88-1.88l0,0c0-1.04-0.84-1.88-1.88-1.88h-163.9
					c-1.04,0-1.88,0.84-1.88,1.88l0,0C105.37,280.65,106.21,281.49,107.25,281.49z"/>
			</g>
		</g>
	</g>
</g>
</svg>
